<?xml version="1.0" encoding="UTF-8" standalone="no"?>
<svg viewBox="0 0 100 100" version="1.1" xmlns="http://www.w3.org/2000/svg" xmlns:xlink="http://www.w3.org/1999/xlink" xml:space="preserve">
        <g>
            <path d="M63.664,19.032 L77.781,18.458 L77.74,17.459 L63.27,18.047 C63.212,17.904 63.155,17.759 63.098,17.617 L77.572,15.581 L77.433,14.591 L62.71,16.662 C62.658,16.533 62.606,16.405 62.554,16.277 L77.077,12.739 L76.841,11.767 C76.841,11.767 74.8550402,12.250664 73.8620602,12.492496 C69.9647068,13.441664 62.17,15.34 62.17,15.34 C58.333,6.045 55.25,0 55.25,0 L52,5.25 L38,5.25 L34.75,0 C34.75,0 31.682,6.016 27.857,15.272 L13.47,11.768 L13.452,11.84 L13.156,11.768 L12.92,12.74 L27.446,16.278 C27.399,16.392 27.353,16.507 27.306,16.621 L12.88,14.591 L12.874,14.634 L12.566,14.591 L12.426,15.581 L26.901,17.618 C26.846,17.755 26.79,17.896 26.734,18.035 L12.57,17.459 L12.57,17.472 L12.257,17.459 L12.216,18.458 L26.336,19.032 C22.795,27.97 18.893,39.189 16.25,50.75 C13.1,64.531 14.637,74.653 16.806,81.167 L12.583,81.167 C10.144,81.167 8.166,83.145 8.166,85.583 C8.166,88.022 10.144,90 12.583,90 L21.25,90 L24.75,90 L68.75,90 C68.75,90 79.75,77 73.75,50.75 C71.107,39.189 67.205,27.971 63.664,19.032 L63.664,19.032 Z M37.772,13.237 C36.611,13.105 35.593,12.515 34.926,11.626 C35.593,10.737 36.611,10.147 37.772,10.015 L37.772,13.237 L37.772,13.237 Z M38.683,13.237 L38.683,10.015 C39.843,10.147 40.861,10.737 41.529,11.626 C40.861,12.515 39.843,13.105 38.683,13.237 L38.683,13.237 Z M44.999,17.323 L43.273,14.333 L46.725,14.333 L44.999,17.323 L44.999,17.323 Z M51.354,13.24 C50.184,13.114 49.156,12.521 48.484,11.626 C49.156,10.731 50.184,10.138 51.354,10.012 L51.354,13.24 L51.354,13.24 Z M52.266,13.234 L52.266,10.018 C53.416,10.156 54.425,10.744 55.087,11.626 C54.425,12.509 53.416,13.096 52.266,13.234 L52.266,13.234 Z"/>
        </g>
</svg>